<?xml version="1.0" encoding="utf-8"?>
<svg version="1.1" id="Layer_1" xmlns="http://www.w3.org/2000/svg" xmlns:xlink="http://www.w3.org/1999/xlink" x="0px" y="0px"
	 viewBox="0 0 1480.229 1654.292" enable-background="new 0 0 1480.229 1654.292" xml:space="preserve">
<path d="M967.969,30.861c3.975-1.597,8.081-2.916,12.317-3.715c1.287,1.206,2.591,2.428,3.91,3.633
	c0.945,0.049,2.851,0.13,3.796,0.163c0.733,0.652,2.216,1.955,2.949,2.607c16.534,3.858,38.385,14.833,42.605,16.667
	c0.749,0.065,2.248,0.212,2.982,0.293c9.547,6.093,20.154,10.346,29.604,16.602c4.823,4.252,9.548,9.157,16.276,10.15
	c0.212,0.896,0.668,2.672,0.88,3.568c3.34,1.532,6.631,3.161,9.873,4.937c-2.786,7.755-10.525,11.356-17.026,15.429
	c1.189,10.639,10.411,17.303,14.37,26.753c0.293,2.542,0.554,5.1,0.815,7.658c0.619-0.049,1.841-0.147,2.46-0.196
	c1.988,9.906,3.03,20.089,1.76,30.158c-5.279,5.8-8.163,13.099-12.464,19.551c0.161,6.638,9.606,43.392,14.598,54.613
	c-7.582,14.924-14.311,5.882-22.549,9.156c-2.102,4.725-3.275,9.89-5.963,14.338c-3.666,3.617-12.073,2.167-11.959,8.863
	c-1.01,0.326-3.03,0.994-4.041,1.336c2.02,0.326,4.041,0.635,6.093,0.961c-0.212,2.183-0.505,4.366-0.896,6.517
	c-1.382,2.212-2.381,2.232-13.767,8.212c-3.769,19.374-7.127,18.482-20.235,20.659c-4.073,0.342-7.234,3.324-11.095,4.318
	c-3.438,0.375-6.892,0.31-10.33,0.407c0,4.917,3.329,18.201,10.085,28.496c0,1.515,0.016,3.03,0.049,4.562
	c-7.924,14.491-9.073,18.778-14.566,27.958c-1.296,15.896,11.795,74.259,0.358,108.444c-6.729,20.496-20.887,37.489-28.708,57.497
	c-2.623,5.865-7.381,10.427-10.036,16.276c-3.064,6.615-13.348,35.273-12.301,47.2c25.524,28.527,5.284,10.736,59.843,38.19
	c0.684,0.13,2.085,0.407,2.786,0.538c4.562,3.242,10.411,5.181,13.458,10.183c2.46,4.35,3.878,9.873,9.026,11.877
	c17.436-5.378,43.42-9.558,49.367-11.144c2.558-2.151,5.181-4.236,7.967-6.093c30.239-6.499,26.716-13.316,79.785-30.06
	c10.446-9.205,38.38-7.465,45.864-9.336c0.733,0.293,2.232,0.864,2.965,1.141c1.026-0.098,3.063-0.293,4.089-0.391
	c10.264,6.631,14.403,18.704,22.842,27.127c7.755,10.069,17.498,18.264,26.639,27.03c7.495,8.505,13.8,17.971,21.115,26.638
	c10.607,10.232,19.323,22.256,27.746,34.312c1.271-0.016,3.829-0.049,5.1-0.049c-0.717,1.45-1.434,2.916-2.118,4.383
	c1.743,2.884,3.519,5.8,5.312,8.684c2.265,0.016,4.562,0.049,6.859,0.082c-1.45,1.597-2.9,3.177-4.35,4.774
	c5.588,11.063,13.197,21.05,17.84,32.602c2.737,6.37,4.79,13.181,8.994,18.818c10.616,14.057,7.833,21.305,11.03,29.115
	c4.937,2.705,5.963,8.684,8.651,13.197c9.973,20.977,35.864,42.474,19.698,55.102c-1.634,1.059-31.316,23.969-35.551,31.901
	c-5.051,1.971-10.215,3.715-15.005,6.305c-0.75,0.114-2.232,0.375-2.965,0.489c-5.686,5.116-12.04,9.433-18.052,14.142
	c-7.079-0.754-24.818,10.47-29.017,14.582c-4.073,3.959-9.857,5.132-14.468,8.244c-5.067,2.998-8.309,8.065-12.676,11.861
	c-11.061,5.377-11.916-0.782-17.384,16.162c1.369,9.792-0.472,19.616-1.922,29.278c1.238,19.958,3.487,39.868,4.871,59.811
	c-2.884,27.359-4.172,82.96-6.273,92.2c0.195,0.766,0.554,2.297,0.75,3.063c-2.068,8.144-2.65,59.315,7.706,93.667
	c9.319,20.447,15.087,42.817,28.398,61.26c12.493,15.108,3.525,20.078,53.179,42.377c10.569,6.989,38.759,17.442,55.868,14.533
	c7.641-1.45,15.429,0.456,23.136-0.652c4.366-0.684,8.733-1.45,13.132-2.053c5.735,3.878,11.258,8.065,16.293,12.839
	c0.863,5.067,0.424,10.297-2.688,14.549c-0.081,0.961-0.244,2.9-0.326,3.861c-13.641,22.766-37.941,27.871-48.177,35.876
	c-84.586,22.812-82.787,9.959-109.52,12.073c-0.701,0.587-2.118,1.776-2.819,2.363c-16.657-7.452-107.833,19.517-107.125-11.812
	l-1.01,0.912c1.808-6.696,0.114-13.148-1.825-19.519c1.287-6.24,4.969-12.79,1.352-19.014c-1.075-10.167,4.301-19.437,5.018-29.408
	c1.939-1.597,3.927-3.145,5.963-4.643c8.813-64.485-6.846-156.414-22.891-221.271c-24.851-52.4-18.416-67.468-24.83-95.475
	c-4.774,2.737-9.173,6.061-13.784,9.042c-0.554,1.189-1.092,2.411-1.613,3.633c-26.002,4.287-69.065,49.126-88.942,42.328
	c-1.743-1.776-3.128-3.813-4.888-5.507c-2.786-1.434-5.914-0.147-8.586,0.815c-2.558,0.147-5.1,0.277-7.641,0.391
	c-1.499-1.434-3.014-2.851-4.513-4.236c0.13-3.992,1.189-8,5.051-9.906c0.631-5.278,0.432-3.778,2.167-9.319
	c-4.595-6.175-9.482-13.213-17.482-15.022c0.163-10.509-8.179-17.498-14.468-24.749c-4.106,0.293-8.146,1.255-12.252,1.303
	c-4.774-1.238-6.859-6.208-9.238-10.02c-7.462-5.491-6.012-16-2.134-23.233c-1.988-2.737-3.992-5.458-6.012-8.146
	c-3.535-0.521-7.82,0.244-10.427-2.705c-7.508-7.52-33.316-43.698-39.95-49.953c0.114-1.043,0.326-3.128,0.44-4.171
	c-1.434-3.992-1.434-8.211-1.369-12.366c-19.893-3.747-40.145-5.181-59.908-9.678c-6.582,7.69-12.48,15.983-17.433,24.798
	c-6.338,6.094-11.78,13.442-19.584,17.759c-31.857,39.38-38.096,61.361-55.558,89.708c-1.971,2.753-2.346,6.142-2.786,9.417
	c-4.252,1.58-8.065,4.089-10.509,7.967c-5.083,7.413-12.089,13.458-16.016,21.653c-4.513,9.026-10.753,17.075-14.973,26.28
	c-2.591,12.089-3.356,24.928-8.7,36.219c-49.338,22.555-27.812,7.548-41.921,26.541c-6.126,8.423-12.969,16.293-19.193,24.651
	c-12.555,14.637-7.816,18.52-35.844,33.074c-29.478,10.807-65.302,7.397-134.887,41.123c-8.049,2.851-15.071,7.902-22.875,11.372
	c-11.095,8.423-24.749,12.268-36.936,18.769c-4.102,0.716-83.691,30.617-89.822,33.351c-7.59,3.948-64.322,29.548-108.493,74.832
	c-0.668,0.212-2.004,0.668-2.672,0.896c-17.39,13.838-37.316,31.415-42.736,37.962c-0.864,0.147-2.607,0.44-3.487,0.57
	c-1.141,1.825-2.297,3.633-3.503,5.425c-0.13,4.643,0.961,9.156,2.835,13.409c-2.851,0.277-5.686,0.635-8.505,1.092
	c-11.469,18.136-46.097,48.297-43.045,79.851c0.684,7.739-2.444,15.234-1.613,22.956c0.668,3.21,5.23,7.804,0.766,10.102
	c-8.293,4.22-12.985,13.604-22.435,15.706c-1.01-0.391-2.02-0.766-3.03-1.108c-8.237,5.148-16.085,8.876-28.724-10.721
	c-0.701-3.503-2.411-6.631-4.35-9.548c-1.108-3.78-2.623-7.495-5.458-10.281c-25.696-51.818,1.911-121.374,2.33-143.799
	c5.132-15.934,2.46-32.895,5.165-49.188c3.851-67.692,20.468-56.495,37.815-55.135c17.059-6.228,56.179,12.51,66.295,15.837
	c53.715-9.581,176.149-101.111,216.774-135.62c46.06-30.51,119.264-43.088,153.477-60.984c6.99-7.69,15.266-16.863,13.295-28.105
	c7.462-8.163,8.57-19.714,7.967-30.256c2.183-2.916,4.643-5.654,6.436-8.831c0.305-7.206-10.614-30.454,21.327-72.34
	c0.016-0.831,0.081-2.477,0.114-3.307c0.705-1.629,28.473-74.273,34.215-82.311c6.199-10.509,11.139-30.616,9.222-36.023
	c-2.46-9.58-4.318-19.372-8.423-28.414c-2.053-5.686-5.93-10.981-5.621-17.27c-0.016-5.914-0.424-11.796-1.499-17.612
	c-1.108-6.892,1.792-14.777-2.428-20.936c-5.051-5.556-10.737-10.509-15.967-15.869c-0.016-2.216-0.016-4.415,0.016-6.599
	c25.31-33.601,28.946-23.007,31.754-53.554c1.189-1.872,10.561-16.549,11.47-18.232c1.89-6.606,4.346-30.647,21.18-38.744
	c18.827-7.233,20.513-11.829,37.946-44.153c0.555-5.191,2.145-11.017,8.407-21.376c0.449-23.666-4.257-22.314-4.562-34.948
	c1.743-10.965,3.307-23.054-2.639-33.074c0.896-16.374,5.768-32.357,13.556-46.711c0.863-21.197-0.261-42.443-0.521-63.639
	c2.796-11.597-44.813,7.694-87.296,11.861c-9.759,0.831-20.219-0.342-29.099,4.66c-26.42,12.743-176.115,185.624-168.874,218.404
	c3.47,13.833,13.653,24.683,18.232,38.011c-6.516,7.323-6.062,1.219-10.395,39.933c-0.424,6.338,1.988,12.383,2.607,18.623
	c-4.106-2.248-8.26-4.399-12.529-6.305c-2.379,4.741-4.497,9.939-3.307,15.364c2.102,7.381-4.529,12.464-8.212,17.889
	c-7.439,11.089-13.723,21.027-25.905,14.729c-0.179-2.672-0.375-5.328-0.57-7.967c-7.472,11.677-7.49,22.803-23.82,25.905
	c-1.303-1.124-2.607-2.248-3.91-3.373c10.028-33.811,38.627-72.966,14.452-66.8c-2.591,7.267-4.285,14.826-5.328,22.468
	c-0.766,5.817-5.197,10.118-6.941,15.592c-8.46,24.305-7.371,33.147-22.565,26.492c1.067-25.673,24.458-53.435,26.003-70.14
	c-2.379-2.753-4.937-5.328-7.641-7.755c-2.933,0.473-6.566-0.13-8.651,2.493c-4.611,4.92-5.947,12.089-11.095,16.635
	c-13.339,12.184-11.051,26.719-18.834,26.818c-3.259,1.075-5.751-3.014-4.024-5.702c6.778-17.906,22.109-31.07,29.343-48.731
	c3.03-16.586,4.285-33.612,9.319-49.774c2.183-7.69,7.169-14.37,8.13-22.451c1.841-13.702,12.757-23.054,20.007-33.987
	c7.378-11.389,41.509-97.393,75.207-143.245c44.026-59.547,47.469-64.218,54.988-79.867c2.916-6.615,7.462-12.22,12.399-17.433
	c28.407-4.253,92.996-33.911,142.105-45.196c5.849-1.532,12.611-1.532,16.896-6.468c4.35-1.369,8.651-2.949,12.545-5.36
	c1.369-2.102,2.265-4.855,4.709-5.996c11.418-0.632,10.693,6.501,25.254-5.588c23.991,14.686,51.09-46.479,108.9-71.541
	c38.797-20.743,19.208-10.656,34.231-18.851c6.957-1.678,13.995-3.177,21.148-3.698c4.122-6.81,10.362-13.116,9.271-21.783
	c1.678-2.477,3.992-4.66,4.92-7.576c0.484-27.65-29.265-64.993-7.511-111.165c4.839-7.495,10.835-14.794,19.519-17.922
	c1.988-2.46,4.122-4.79,6.371-7.022c-3.405-3.519-1.939-8.244-1.075-12.431c-2.509-1.58-4.986-3.193-7.381-4.888
	c0.002,0,24.764-3.112,24.765-3.112c0.733-1.401,1.466-2.802,2.216-4.187c3.65,0.782,7.348,1.303,11.063,1.743
	c0.684-0.554,2.086-1.662,2.77-2.216c1.939,1.14,3.91,2.297,5.865,3.454c0.44-1.401,0.896-2.802,1.352-4.204
	C955.88,37.59,960.882,31.692,967.969,30.861 M931.033,686.772c-4.46,15.96,0.556,9.498-12.871,53.44
	c-2.167,3.226-3.275,6.908-1.189,10.509c3.422,1.124,6.876,2.216,10.346,3.275c22.084-29.4,12.51-9.755,23.836-29.131
	c2.916-6.484,8.619-11.437,10.379-18.476c-9.056-12.29-6.404-4.302-18.362-26.492c-0.065-2.167-0.098-4.318-0.098-6.468
	c-2.428-2.867-4.969-5.637-7.869-8.016C928.475,670.724,933.151,679.636,931.033,686.772 M974.421,721.834
	C975.301,722.779,975.301,722.779,974.421,721.834 M384.055,764.098c-5.002,21.844-3.224,7.278-3.747,34.687
	c16.791-17.061,13.385-18.467,13.751-34.296c-1.792-1.417-3.568-2.819-5.36-4.22C387.134,761.54,385.586,762.81,384.055,764.098z"/>
</svg>
