<?xml version="1.0" encoding="UTF-8" standalone="no"?>
<!-- Created with Inkscape (http://www.inkscape.org/) -->

<svg
   xmlns:dc="http://purl.org/dc/elements/1.1/"
   xmlns:cc="http://creativecommons.org/ns#"
   xmlns:rdf="http://www.w3.org/1999/02/22-rdf-syntax-ns#"
   xmlns:svg="http://www.w3.org/2000/svg"
   xmlns="http://www.w3.org/2000/svg"
   xmlns:sodipodi="http://sodipodi.sourceforge.net/DTD/sodipodi-0.dtd"
   xmlns:inkscape="http://www.inkscape.org/namespaces/inkscape"
   width="4.4468136in"
   height="4.9666438in"
   viewBox="0 0 400.21323 446.99791"
   id="svg2"
   version="1.1"
   inkscape:version="0.92.4 (5da689c313, 2019-01-14)"
   sodipodi:docname="pedestrian-criminal.svg"
   inkscape:export-filename="/home/algot/Documents/runeman.org/clipart/pedestrian-criminal.png"
   inkscape:export-xdpi="45.182449"
   inkscape:export-ydpi="45.182449">
  <title
     id="title4238">Pedestrian Criminal</title>
  <defs
     id="defs4">
    <inkscape:path-effect
       fuse_tolerance="0"
       vertical_pattern="false"
       prop_units="false"
       tang_offset="0"
       normal_offset="0"
       spacing="0"
       scale_y_rel="false"
       prop_scale="1"
       copytype="single_stretched"
       pattern="m -60,0 h 1"
       is_visible="true"
       id="path-effect4242"
       effect="skeletal" />
    <inkscape:path-effect
       fuse_tolerance="0"
       vertical_pattern="false"
       prop_units="false"
       tang_offset="0"
       normal_offset="0"
       spacing="0"
       scale_y_rel="false"
       prop_scale="1"
       copytype="single_stretched"
       pattern="m 302,-2 h 1"
       is_visible="true"
       id="path-effect4230"
       effect="skeletal" />
    <inkscape:path-effect
       effect="skeletal"
       id="path-effect4226"
       is_visible="true"
       pattern="m 242,-2 h 1"
       copytype="single_stretched"
       prop_scale="1"
       scale_y_rel="false"
       spacing="0"
       normal_offset="0"
       tang_offset="0"
       prop_units="false"
       vertical_pattern="false"
       fuse_tolerance="0" />
    <inkscape:path-effect
       fuse_tolerance="0"
       vertical_pattern="false"
       prop_units="false"
       tang_offset="0"
       normal_offset="0"
       spacing="0"
       scale_y_rel="false"
       prop_scale="1"
       copytype="single_stretched"
       pattern="m 182,-2 h 1"
       is_visible="true"
       id="path-effect4222"
       effect="skeletal" />
    <inkscape:path-effect
       effect="skeletal"
       id="path-effect4218"
       is_visible="true"
       pattern="m 122,0 h 1"
       copytype="single_stretched"
       prop_scale="1"
       scale_y_rel="false"
       spacing="0"
       normal_offset="0"
       tang_offset="0"
       prop_units="false"
       vertical_pattern="false"
       fuse_tolerance="0" />
    <inkscape:path-effect
       fuse_tolerance="0"
       vertical_pattern="false"
       prop_units="false"
       tang_offset="0"
       normal_offset="0"
       spacing="0"
       scale_y_rel="false"
       prop_scale="1"
       copytype="single_stretched"
       pattern="m 60,0 h 1"
       is_visible="true"
       id="path-effect4214"
       effect="skeletal" />
    <inkscape:path-effect
       effect="skeletal"
       id="path-effect4210"
       is_visible="true"
       pattern="M 0,0 H 1"
       copytype="single_stretched"
       prop_scale="1"
       scale_y_rel="false"
       spacing="0"
       normal_offset="0"
       tang_offset="0"
       prop_units="false"
       vertical_pattern="false"
       fuse_tolerance="0" />
    <inkscape:path-effect
       effect="skeletal"
       id="path-effect4206"
       is_visible="true"
       pattern="m -2.8284271,357.79604 h 1"
       copytype="single_stretched"
       prop_scale="1"
       scale_y_rel="false"
       spacing="0"
       normal_offset="0"
       tang_offset="0"
       prop_units="false"
       vertical_pattern="false"
       fuse_tolerance="0" />
    <inkscape:path-effect
       fuse_tolerance="0"
       vertical_pattern="false"
       prop_units="false"
       tang_offset="0"
       normal_offset="0"
       spacing="0"
       scale_y_rel="false"
       prop_scale="1"
       copytype="single_stretched"
       pattern="M 0,220.61732 H 1"
       is_visible="true"
       id="path-effect4202"
       effect="skeletal" />
    <inkscape:path-effect
       effect="skeletal"
       id="path-effect4198"
       is_visible="true"
       pattern="M 0,0 H 1"
       copytype="single_stretched"
       prop_scale="1"
       scale_y_rel="false"
       spacing="0"
       normal_offset="0"
       tang_offset="0"
       prop_units="false"
       vertical_pattern="false"
       fuse_tolerance="0" />
    <inkscape:path-effect
       effect="skeletal"
       id="path-effect4190"
       is_visible="true"
       pattern="m -45.254834,82.024387 h 1"
       copytype="single_stretched"
       prop_scale="1"
       scale_y_rel="false"
       spacing="0"
       normal_offset="0"
       tang_offset="0"
       prop_units="false"
       vertical_pattern="false"
       fuse_tolerance="0" />
    <inkscape:path-effect
       fuse_tolerance="0"
       vertical_pattern="false"
       prop_units="false"
       tang_offset="0"
       normal_offset="0"
       spacing="0"
       scale_y_rel="false"
       prop_scale="1"
       copytype="single_stretched"
       pattern="m -45.254834,82.024387 h 1"
       is_visible="true"
       id="path-effect3378"
       effect="skeletal" />
    <inkscape:path-effect
       effect="skeletal"
       id="path-effect3370"
       is_visible="true"
       pattern="m -6,0 h 1"
       copytype="single_stretched"
       prop_scale="1"
       scale_y_rel="false"
       spacing="0"
       normal_offset="0"
       tang_offset="0"
       prop_units="false"
       vertical_pattern="false"
       fuse_tolerance="0" />
    <inkscape:path-effect
       effect="skeletal"
       id="path-effect3366"
       is_visible="true"
       pattern="M 0,0 H 1"
       copytype="single_stretched"
       prop_scale="1"
       scale_y_rel="false"
       spacing="0"
       normal_offset="0"
       tang_offset="0"
       prop_units="false"
       vertical_pattern="false"
       fuse_tolerance="0" />
    <inkscape:path-effect
       effect="skeletal"
       id="path-effect3362"
       is_visible="true"
       pattern="m -45.254834,82.024387 h 1"
       copytype="single_stretched"
       prop_scale="1"
       scale_y_rel="false"
       spacing="0"
       normal_offset="0"
       tang_offset="0"
       prop_units="false"
       vertical_pattern="false"
       fuse_tolerance="0" />
    <inkscape:path-effect
       effect="skeletal"
       id="path-effect3358"
       is_visible="true"
       pattern="m -45.254834,82.024387 h 1"
       copytype="single_stretched"
       prop_scale="1"
       scale_y_rel="false"
       spacing="0"
       normal_offset="0"
       tang_offset="0"
       prop_units="false"
       vertical_pattern="false"
       fuse_tolerance="0" />
    <inkscape:path-effect
       effect="skeletal"
       id="path-effect3352"
       is_visible="true"
       pattern="M 1,-9 H 2"
       copytype="single_stretched"
       prop_scale="1"
       scale_y_rel="false"
       spacing="0"
       normal_offset="0"
       tang_offset="0"
       prop_units="false"
       vertical_pattern="false"
       fuse_tolerance="0" />
    <inkscape:path-effect
       effect="skeletal"
       id="path-effect3348"
       is_visible="true"
       pattern="M 0,0 H 1"
       copytype="single_stretched"
       prop_scale="1"
       scale_y_rel="false"
       spacing="0"
       normal_offset="0"
       tang_offset="0"
       prop_units="false"
       vertical_pattern="false"
       fuse_tolerance="0" />
    <inkscape:path-effect
       effect="skeletal"
       id="path-effect3344"
       is_visible="true"
       pattern="M 0,0 H 1"
       copytype="single_stretched"
       prop_scale="1"
       scale_y_rel="false"
       spacing="0"
       normal_offset="0"
       tang_offset="0"
       prop_units="false"
       vertical_pattern="false"
       fuse_tolerance="0" />
    <filter
       style="color-interpolation-filters:sRGB"
       id="filter3721"
       width="1.2199"
       y="-0.1321"
       x="-0.10993"
       height="1.2642"
       inkscape:collect="always">
      <feGaussianBlur
         id="feGaussianBlur3723"
         stdDeviation="1.5830058"
         inkscape:collect="always" />
    </filter>
  </defs>
  <sodipodi:namedview
     id="base"
     pagecolor="#ffffff"
     bordercolor="#666666"
     borderopacity="1.0"
     inkscape:pageopacity="0.0"
     inkscape:pageshadow="2"
     inkscape:zoom="1"
     inkscape:cx="5.93234"
     inkscape:cy="267.96844"
     inkscape:document-units="px"
     inkscape:current-layer="layer1"
     showgrid="true"
     fit-margin-top="0"
     fit-margin-left="0"
     fit-margin-right="0"
     fit-margin-bottom="0"
     inkscape:window-width="1360"
     inkscape:window-height="705"
     inkscape:window-x="-8"
     inkscape:window-y="-8"
     inkscape:window-maximized="1"
     units="in">
    <inkscape:grid
       type="xygrid"
       id="grid3336"
       originx="541.82847"
       originy="-440" />
  </sodipodi:namedview>
  <metadata
     id="metadata7">
    <rdf:RDF>
      <cc:Work
         rdf:about="">
        <dc:format>image/svg+xml</dc:format>
        <dc:type
           rdf:resource="http://purl.org/dc/dcmitype/StillImage" />
        <dc:title>Pedestrian Criminal</dc:title>
        <dc:date>2015-04-30</dc:date>
        <dc:creator>
          <cc:Agent>
            <dc:title>Algot Runeman</dc:title>
          </cc:Agent>
        </dc:creator>
        <dc:rights>
          <cc:Agent>
            <dc:title>Algot Runeman</dc:title>
          </cc:Agent>
        </dc:rights>
        <dc:publisher>
          <cc:Agent>
            <dc:title>runeman.org</dc:title>
          </cc:Agent>
        </dc:publisher>
        <dc:identifier>pedestrian-criminal.svg</dc:identifier>
        <cc:license
           rdf:resource="http://creativecommons.org/publicdomain/zero/1.0/" />
      </cc:Work>
      <cc:License
         rdf:about="http://creativecommons.org/publicdomain/zero/1.0/">
        <cc:permits
           rdf:resource="http://creativecommons.org/ns#Reproduction" />
        <cc:permits
           rdf:resource="http://creativecommons.org/ns#Distribution" />
        <cc:permits
           rdf:resource="http://creativecommons.org/ns#DerivativeWorks" />
      </cc:License>
    </rdf:RDF>
  </metadata>
  <g
     inkscape:label="Layer 1"
     inkscape:groupmode="layer"
     id="layer1"
     transform="translate(541.82843,-165.36429)">
    <path
       style="fill:#000000;fill-rule:evenodd;stroke:#000000;stroke-width:3;stroke-linecap:butt;stroke-linejoin:miter;stroke-opacity:1"
       d="m -519,523.3622 h 340"
       id="path3350"
       inkscape:path-effect="#path-effect3352"
       inkscape:original-d="m -519,523.3622 h 340"
       inkscape:connector-curvature="0" />
    <path
       style="fill:#000000;fill-rule:evenodd;stroke:none;stroke-width:1px;stroke-linecap:butt;stroke-linejoin:miter;stroke-opacity:1;fill-opacity:1"
       d="m -340,322.3622 h 20 l 40,20 v 69.99997 3e-5 l 30,-30 9.99999,19.99997 1e-5,3e-5 -17.51,21.26125 c -1e-5,1e-5 -2e-5,2e-5 -2e-5,2e-5 -5.16397,5.80893 -10.51589,11.46093 -16.24561,16.71264 0,0 -1e-5,10e-6 -2e-5,2e-5 -4.9813,4.56573 -10.20055,9.00417 -16.24435,12.02607 l 0,0 c -0.72361,0.36181 -1.60083,0.42219 -2.3422,0.0983 l 0,0 c -0.84103,-0.36739 -1.49,-1.07145 -2.03015,-1.81343 l 0,0 c -1.5142,-2.08002 -2.36692,-4.56455 -3.12411,-7.0234 l 0,0 -2.50353,-11.26146 L -300,382.3622 v 100 l 17.21753,9.41768 3e-5,1e-5 c 4.67105,2.90401 9.21676,6.03232 13.39368,9.61076 l 0,0 c 3.67832,3.15128 7.22261,6.63927 9.38875,10.97152 0,10e-6 10e-6,2e-5 10e-6,3e-5 3.03303,6.06607 3.96226,12.9667 4.40177,19.73451 l 0,0 c 0.49907,7.68504 0.18413,15.405 -0.48735,23.0769 v 0 L -260,582.36218 v 0 l -20,-9.99998 h 0 l -10e-6,-6e-5 v 0 L -290,522.3622 l -30,1 -8,8 3e-5,5e-5 47.99997,70.99995 -4e-5,4e-5 -9.99996,9.99996 -0.0141,-0.01 c -0.0136,-0.009 -0.0271,-0.0187 -0.0406,-0.0281 -1e-5,-10e-6 -3e-5,-2e-5 -4e-5,-3e-5 -0.0533,-0.0369 -0.1065,-0.0738 -0.1597,-0.11075 -2e-5,-10e-6 -3e-5,-2e-5 -5e-5,-3e-5 -0.2078,-0.14439 -0.41519,-0.28937 -0.62236,-0.43466 -1e-5,-10e-6 -3e-5,-2e-5 -4e-5,-3e-5 -0.79364,-0.5566 -1.58399,-1.11788 -2.37234,-1.68192 -2.88524,-2.06431 -5.7437,-4.16593 -8.58207,-6.29421 -9.27562,-6.95511 -18.34091,-14.19286 -27.13163,-21.75155 -10.60107,-9.11532 -20.84502,-18.67907 -30.17015,-29.09606 -8.27491,-9.24379 -16.15911,-19.13082 -20.90688,-30.59295 -10e-6,-2e-5 -10e-6,-4e-5 -2e-5,-5e-5 -3.15466,-7.61603 -5.16635,-15.66469 -6.62831,-23.77754 l 0,0 c -1.66714,-9.25147 -2.59273,-18.62545 -3.11174,-28.01159 -1.09776,-19.85284 -0.41355,-39.77162 1.08072,-59.59856 1.23903,-16.44023 3.07685,-32.83382 5.4104,-49.15469 0,-2e-5 0,-4e-5 0,-6e-5 0.71397,-4.9935 1.47494,-9.98039 2.30035,-14.95669 l 0,0 c 0.22547,-1.35932 0.45572,-2.71786 0.69398,-4.075 0,-2e-5 0,-4e-5 10e-6,-6e-5 0.0622,-0.35404 0.12485,-0.70799 0.18855,-1.06177 l 10e-6,-5e-5 0,0 c 0.0163,-0.0905 0.0327,-0.18098 0.0491,-0.27144 l 0,0 c 0.004,-0.023 0.008,-0.0459 0.0126,-0.0689 0.001,-0.006 0.002,-0.0117 0.003,-0.0175 z"
       id="path3342"
       inkscape:path-effect="#path-effect3344"
       inkscape:original-d="m -340,322.3622 h 20 l 40,20 v 70 l 30,-30 10,20 c 0,0 -30,40 -50,50 -6.66667,3.33333 -10,-20 -10,-20 v -50 100 c 0,0 32.54644,15.09288 40,30 10.43498,20.86997 0,70 0,70 l -20,-10 -10,-50 -30,1 -8,8 48,71 -10,10 c 0,0 -73.76412,-50.80311 -90,-90 -23.08857,-55.74073 0,-181 0,-181 z"
       inkscape:connector-curvature="0"
       sodipodi:nodetypes="ccccccscccacccccccacc" />
    <path
       style="fill:#000000;fill-rule:evenodd;stroke:none;stroke-width:1px;stroke-linecap:butt;stroke-linejoin:miter;stroke-opacity:1;fill-opacity:1"
       d="m -380.00001,342.36221 -24.48961,20.26098 c -6.25228,5.96098 -12.18919,12.30644 -17.11602,19.40225 l 0,10e-6 c -2.25518,3.24799 -4.29346,6.66193 -5.84844,10.2975 -1.36458,3.19043 -2.36082,6.57418 -2.54592,10.03925 -0.17089,3.19917 0.41082,6.40348 1.3497,9.46655 1.06987,3.49043 2.60522,6.82495 4.356,10.02846 l 1e-5,0 c 3.8249,6.99867 8.65087,13.40784 13.80419,19.49508 l 20.49009,21.0099 10,-19.99998 10e-6,-1e-5 -20,-30 30,-30 -10,-40"
       id="path3346"
       inkscape:path-effect="#path-effect3348"
       inkscape:original-d="m -380,342.3622 c 0,0 -48.61127,34.0029 -50,60 -1.28219,24.00279 40,60 40,60 l 10,-20 -20,-30 30,-30 z"
       inkscape:connector-curvature="0"
       sodipodi:nodetypes="csccccc" />
    <circle
       style="opacity:1;fill:#000000;fill-opacity:1;stroke:none;stroke-width:3.40191531;stroke-linecap:round;stroke-linejoin:bevel;stroke-miterlimit:4;stroke-dasharray:none;stroke-dashoffset:0;stroke-opacity:1"
       id="path3354"
       cx="-324.55026"
       cy="289.81195"
       r="28.349295" />
    <path
       style="fill:#333333;fill-rule:evenodd;stroke:none;stroke-width:1px;stroke-linecap:butt;stroke-linejoin:miter;stroke-opacity:1"
       d="m -480,172.37642 h 20 v 4e-5 422.98574 l -4e-5,0 H -480 Z"
       id="path4208"
       inkscape:path-effect="#path-effect4210"
       inkscape:original-d="m -480,172.37642 h 20 V 595.3622 h -20 z"
       inkscape:connector-curvature="0" />
    <path
       inkscape:connector-curvature="0"
       inkscape:original-d="m -420,172.37642 h 20 V 595.3622 h -20 z"
       inkscape:path-effect="#path-effect4214"
       id="path4212"
       d="m -420,172.37642 h 20 v 4e-5 422.98574 l -4e-5,0 H -420 Z"
       style="fill:#333333;fill-rule:evenodd;stroke:none;stroke-width:1px;stroke-linecap:butt;stroke-linejoin:miter;stroke-opacity:1" />
    <path
       style="fill:#33333b;fill-rule:evenodd;stroke:none;stroke-width:1px;stroke-linecap:butt;stroke-linejoin:miter;stroke-opacity:1;fill-opacity:1"
       d="m -358,172.37642 h 20 v 4e-5 422.98574 l -4e-5,0 H -358 Z"
       id="path4216"
       inkscape:path-effect="#path-effect4218"
       inkscape:original-d="m -358,172.37642 h 20 V 595.3622 h -20 z"
       inkscape:connector-curvature="0" />
    <path
       inkscape:connector-curvature="0"
       inkscape:original-d="m -298,170.3622 h 20 v 422.98578 h -20 z"
       inkscape:path-effect="#path-effect4222"
       id="path4220"
       d="m -298,170.3622 h 20 v 4e-5 422.98574 l -4e-5,0 H -298 Z"
       style="fill:#333333;fill-rule:evenodd;stroke:none;stroke-width:1px;stroke-linecap:butt;stroke-linejoin:miter;stroke-opacity:1" />
    <path
       style="fill:#333333;fill-rule:evenodd;stroke:none;stroke-width:1px;stroke-linecap:butt;stroke-linejoin:miter;stroke-opacity:1"
       d="m -238,170.3622 h 20 v 4e-5 422.98574 l -4e-5,0 H -238 Z"
       id="path4224"
       inkscape:path-effect="#path-effect4226"
       inkscape:original-d="m -238,170.3622 h 20 v 422.98578 h -20 z"
       inkscape:connector-curvature="0" />
    <path
       inkscape:connector-curvature="0"
       inkscape:original-d="m -178,170.3622 h 20 v 422.98578 h -20 z"
       inkscape:path-effect="#path-effect4230"
       id="path4228"
       d="m -178,170.3622 h 20 v 4e-5 422.98574 l -4e-5,0 H -178 Z"
       style="fill:#333333;fill-rule:evenodd;stroke:none;stroke-width:1px;stroke-linecap:butt;stroke-linejoin:miter;stroke-opacity:1" />
    <path
       inkscape:connector-curvature="0"
       inkscape:original-d="m -540,172.37642 h 20 V 595.3622 h -20 z"
       inkscape:path-effect="#path-effect4242"
       id="path4240"
       d="m -540,172.37642 h 20 v 4e-5 422.98574 l -4e-5,0 H -540 Z"
       style="fill:#333333;fill-rule:evenodd;stroke:none;stroke-width:1px;stroke-linecap:butt;stroke-linejoin:miter;stroke-opacity:1" />
    <path
       style="fill:#666666;fill-rule:evenodd;stroke:none;stroke-width:1px;stroke-linecap:butt;stroke-linejoin:miter;stroke-opacity:1"
       d="m -538.69461,192.3622 h 397.07939 v 19.99996 4e-5 h -397.07935 -4e-5 z"
       id="path4196"
       inkscape:path-effect="#path-effect4198"
       inkscape:original-d="m -538.69461,192.3622 h 397.07939 v 20 h -397.07939 z"
       inkscape:connector-curvature="0" />
    <path
       inkscape:connector-curvature="0"
       inkscape:original-d="m -538.69461,412.97952 h 397.07939 v 20 h -397.07939 z"
       inkscape:path-effect="#path-effect4202"
       id="path4200"
       d="m -538.69461,412.97952 h 397.07939 v 19.99996 4e-5 h -397.07935 -4e-5 z"
       style="fill:#666666;fill-rule:evenodd;stroke:none;stroke-width:1px;stroke-linecap:butt;stroke-linejoin:miter;stroke-opacity:1" />
    <path
       style="fill:#666666;fill-rule:evenodd;stroke:none;stroke-width:1px;stroke-linecap:butt;stroke-linejoin:miter;stroke-opacity:1"
       d="m -541.82843,550.15824 h 400.2132 v 19.99998 2e-5 h -400.21316 -4e-5 z"
       id="path4204"
       inkscape:path-effect="#path-effect4206"
       inkscape:original-d="m -541.82843,550.15824 h 400.2132 v 20 h -400.2132 z"
       inkscape:connector-curvature="0" />
    <g
       id="g3746"
       transform="matrix(4.3721873,0,0,4.6830381,-1881.3041,-2213.6366)">
      <path
         inkscape:connector-curvature="0"
         id="path2892-8-3"
         sodipodi:nodetypes="ccccssccsc"
         style="fill:#7a7a7a;filter:url(#filter3721)"
         d="m 360.88,531.88 c -1.4496,3.5554 -4.0544,5.8735 -6.11,8.6826 2.9085,-2.0738 6.2093,-4.0858 9.0488,-7.3023 m -2.9459,-1.3798 c -3.4178,-2.0992 -5.6521,-5.239 -5.6521,-8.5986 0,-6.3396 7.6357,-11.479 17.055,-11.479 9.4191,0 17.055,5.1393 17.055,11.479 0,6.3396 -7.6357,11.479 -17.055,11.479 -3.0779,0 -5.9653,-0.54876 -8.4581,-1.5088" />
      <path
         inkscape:connector-curvature="0"
         id="path2892-8"
         sodipodi:nodetypes="ccccssccsc"
         style="fill:#ffffff;stroke:#000000;stroke-width:0.30193001;stroke-linecap:round;stroke-linejoin:round"
         d="m 360.88,529.88 c -1.4496,3.5554 -4.0544,5.8735 -6.11,8.6826 2.9085,-2.0738 6.2093,-4.0858 9.0488,-7.3023 m -2.9459,-1.3798 c -3.4178,-2.0992 -5.6521,-5.239 -5.6521,-8.5986 0,-6.3396 7.6357,-11.479 17.055,-11.479 9.4191,0 17.055,5.1393 17.055,11.479 0,6.3396 -7.6357,11.479 -17.055,11.479 -3.0779,0 -5.9653,-0.54876 -8.4581,-1.5088" />
    </g>
    <text
       xml:space="preserve"
       style="font-style:normal;font-weight:normal;font-size:37.5px;line-height:1.25;font-family:sans-serif;letter-spacing:0px;word-spacing:0px;fill:#000000;fill-opacity:1;stroke:none;stroke-width:0.9375"
       x="-304.68747"
       y="206.73724"
       id="text2070"><tspan
         sodipodi:role="line"
         x="-304.68747"
         y="206.73724"
         style="font-size:17.5px;stroke-width:0.9375"
         id="tspan2072">Rats.</tspan><tspan
         sodipodi:role="line"
         x="-304.68747"
         y="253.61224"
         style="font-size:17.5px;stroke-width:0.9375"
         id="tspan5780">Back in jail!</tspan></text>
  </g>
</svg>
